<svg width="115" height="115" viewBox="0 0 115 115" fill="none" xmlns="http://www.w3.org/2000/svg">
<g clip-path="url(#clip0_1_284)">
<path d="M57.4999 114.468C88.9623 114.468 114.468 88.9624 114.468 57.5001C114.468 26.0377 88.9623 0.532471 57.4999 0.532471C26.0376 0.532471 0.532349 26.0377 0.532349 57.5001C0.532349 88.9624 26.0376 114.468 57.4999 114.468Z" fill="#F1EAFB" stroke="black"/>
<path d="M22.4196 28.3348L27.8949 22.9138L28.7254 23.7401L26.4574 25.9869L32.4736 32.0148L31.5312 32.955L25.5129 26.926L23.2587 29.1621L22.4196 28.3358V28.3348ZM31.8475 19.9717L33.0124 19.3275L34.9887 22.8893L39.3704 20.4743L37.3984 16.9178L38.5729 16.2683L43.29 24.7272L42.1144 25.3757L39.9167 21.4145L35.536 23.8295L37.7295 27.7864L36.5636 28.4295L31.8464 19.9717H31.8475ZM43.8927 14.3144L50.6234 12.7778L50.8874 13.9193L45.4548 15.1598L46.1096 18.0082L51.0195 16.8901L51.2697 17.9656L46.3598 19.089L47.0903 22.2653L52.6614 20.9961L52.9298 22.1759L46.0617 23.7412L43.8927 14.3144ZM60.901 17.1521C61.4951 14.3335 63.7067 12.5808 66.5604 13.1771C69.4142 13.7734 70.8048 16.2406 70.1915 19.0794C69.5792 21.9171 67.3623 23.6421 64.5043 23.0501C61.6453 22.4581 60.3015 19.977 60.8999 17.1521H60.901ZM68.8573 18.7972C69.329 16.6218 68.5037 14.7424 66.3475 14.2952C64.1923 13.849 62.6835 15.2354 62.2309 17.4257C61.7773 19.615 62.6036 21.4571 64.7588 21.9086C66.914 22.359 68.409 20.945 68.8573 18.7972ZM76.2716 16.3876L77.4876 17.068L77.988 24.2895C78.0445 25.1414 77.988 26.4937 77.988 26.4937H78.0211C78.0211 26.4937 78.5588 25.3522 78.9645 24.6473L81.8693 19.4787L82.9597 20.0888L78.2149 28.5467L77.0073 27.8758L76.5356 20.6575C76.4835 19.7928 76.5069 18.4533 76.5069 18.4533C76.5069 18.4533 75.9553 19.5916 75.5635 20.2731L72.6533 25.4417L71.564 24.8305L76.2705 16.3865L76.2716 16.3876ZM87.3403 23.5751L88.2837 24.5153L82.308 30.5304L85.8783 34.0496L85.0254 34.9089L80.5106 30.4548L87.3403 23.5761V23.5751ZM90.5092 35.7225L93.3405 29.7552L94.1413 31L92.6324 34.0401C92.2704 34.7503 91.6187 35.8162 91.6187 35.8162C91.6187 35.8162 92.8688 35.6852 93.6653 35.6522L97.0802 35.5532L97.849 36.7457L91.1374 36.8501L87.7694 39.0117L87.0486 37.8936L90.5092 35.7214V35.7225ZM101.853 46.5005L102.018 47.8826L96.5094 49.9409C95.5894 50.2838 94.0093 50.6927 94.0093 50.6927V50.7214C94.0093 50.7214 95.6597 50.7864 96.6372 50.9184L102.481 51.7916L102.65 53.2025L97.1654 55.3726C96.2496 55.7303 94.6609 56.1818 94.6609 56.1818V56.2042C94.6609 56.2042 96.2975 56.2606 97.2697 56.3831L103.118 57.1391L103.277 58.4925L93.3214 56.9655L93.1659 55.692L99.1459 53.3856C99.9711 53.0608 101.504 52.6477 101.504 52.6477V52.6189C101.504 52.6189 99.919 52.5583 99.0511 52.4411L92.6697 51.5009L92.5143 50.1858L101.853 46.5016V46.5005ZM102.231 65.5831L101.953 67.0397L91.7508 68.7317L92.0244 67.3219L94.9857 66.9045L95.6991 63.1457L93.0999 61.6464L93.3587 60.3069L102.231 65.5831ZM96.6553 63.7037L96.076 66.7437L98.9053 66.3401C99.8913 66.1943 101.037 66.1474 101.037 66.1474V66.1101C101.037 66.1101 99.952 65.6395 99.1225 65.1412L96.6553 63.7037ZM93.9432 73.7172L100.547 72.8717L99.9339 74.2198L96.5478 74.601C95.7502 74.6808 94.5001 74.7128 94.5001 74.7128V74.7373C94.5001 74.7373 95.2923 75.7094 95.7502 76.3622L97.6839 79.1818L97.094 80.4745L93.3682 74.9162L89.7223 73.2614L90.2749 72.0539L93.9432 73.7172ZM90.9862 88.7108L85.2991 93.9178L84.5015 93.0574L86.8601 90.9012L81.0867 84.6422L82.0769 83.735L87.845 90.0174L90.2036 87.8707L90.9862 88.7119V88.7108ZM79.7375 92.0618C81.0345 94.66 80.37 97.3859 77.7431 98.6871C75.1152 99.9883 72.5213 98.8841 71.2243 96.2859C69.9274 93.6878 70.6121 90.9576 73.2294 89.6607C75.8467 88.3637 78.4459 89.4818 79.7375 92.0618ZM72.4606 95.6737C73.4551 97.6617 75.2568 98.6445 77.2288 97.6617C79.1998 96.6799 79.5161 94.6546 78.5204 92.6666C77.5259 90.6786 75.7243 89.7256 73.7522 90.702C71.7812 91.6795 71.4703 93.6952 72.4606 95.6556V95.6737ZM59.3868 103.244L57.9003 103.287L54.0425 93.7251L55.5045 93.6825L56.5523 96.4733L60.3717 96.3615L61.2822 93.5132L62.6505 93.4759L59.3868 103.244ZM60.0363 97.4136L56.9345 97.503L57.9386 100.181C58.2922 101.121 58.585 102.215 58.585 102.215H58.6276C58.6276 102.215 58.8767 101.054 59.1653 100.149L60.0374 97.4136H60.0363ZM45.0246 93.0393H45.0629C45.4972 92.6325 46.0302 92.3461 46.6091 92.2084C47.1881 92.0708 47.7929 92.0867 48.3638 92.2545C48.9635 92.3941 49.5264 92.6604 50.0146 93.0357C50.5028 93.4109 50.905 93.8863 51.1941 94.43C51.7807 95.6098 51.8986 96.968 51.5242 98.2313C51.2377 99.5293 50.4863 100.678 49.4116 101.46C48.8748 101.81 48.2677 102.039 47.6331 102.13C46.9985 102.221 46.3516 102.172 45.738 101.986C43.5253 101.422 42.5542 99.9095 42.6436 98.0951L43.9832 98.4379C43.9832 99.5656 44.5901 100.51 46.034 100.882C48.2318 101.441 49.6565 100.05 50.2081 97.8927C50.7597 95.7365 49.8684 93.8326 48.0103 93.3588C46.1522 92.8839 44.9309 93.9178 44.5348 95.3979L44.4826 95.6002L47.2138 96.2955L46.9306 97.3901L42.9269 96.37L44.1993 91.408L45.0246 91.6199V93.0393ZM36.6817 98.5039L30.7678 94.9698L31.3705 93.9646L36.1483 96.8215L37.6582 94.3128L33.3372 91.7328L33.909 90.7925L38.2289 93.3769L39.9124 90.5583L35.0121 87.6301L35.635 86.5972L41.6768 90.2058L36.6817 98.5039ZM26.7161 91.7796L25.7727 90.7649L27.47 83.7158C27.6681 82.8852 28.1302 81.6117 28.1302 81.6117L28.1068 81.583C28.1068 81.583 27.2486 82.5232 26.6586 83.0631L22.3344 87.1232L21.4762 86.2117L28.5508 79.5811L29.4942 80.582L27.7863 87.6311C27.5786 88.467 27.1495 89.7448 27.1495 89.7448C27.1495 89.7448 28.0173 88.8056 28.5881 88.2881L32.9176 84.2237L33.7759 85.1309L26.7161 91.7796ZM22.6698 79.6801C20.1079 80.9398 17.3671 80.3712 16.0946 77.8008C15.6323 76.9483 15.4834 75.9607 15.674 75.0099C15.8808 74.1382 16.417 73.3804 17.1701 72.8951L17.7589 74.0835C16.7921 74.8076 16.4907 75.9629 17.1456 77.312C18.056 79.1541 20.0706 79.4544 22.0704 78.4726C24.1499 77.4483 24.989 75.6157 24.1255 73.8673C23.3481 72.2978 21.9053 72.0635 20.6126 72.5661L20.027 71.3767C20.7315 71.038 21.5236 70.9258 22.2944 71.0554C23.0653 71.1851 23.7771 71.5503 24.332 72.1008C24.7004 72.466 24.988 72.9026 25.1786 73.3839C26.3999 75.8415 25.301 78.3832 22.6688 79.6801H22.6698ZM18.1604 65.9504L13.2782 70.4226L13.0013 68.967L15.543 66.7107C16.0645 66.2717 16.5993 65.8488 17.1467 65.4425V65.4138C17.1467 65.4138 15.9392 65.0762 15.1842 64.8079L11.9812 63.6291L11.7172 62.2193L17.9815 64.6151L21.9149 63.8687L22.1641 65.1699L18.1604 65.9504ZM19.995 59.5647L19.9578 58.1549L21.3953 58.1123L21.4336 59.5221L19.995 59.5647Z" fill="#9F4B13"/>
</g>
<defs>
<clipPath id="clip0_1_284">
<rect width="115" height="115" fill="white"/>
</clipPath>
</defs>
</svg>
