<svg width="77" height="44" viewBox="0 0 77 44" fill="none" xmlns="http://www.w3.org/2000/svg">
<path d="M75.3455 6.48422L75.3384 6.41472C75.4621 6.40782 75.5761 6.40792 75.6865 6.40312C75.7461 6.41282 75.8068 6.40222 75.8588 6.37322L76.3401 6.05122L75.6827 6.07472L75.6571 6.07232L75.6572 6.06412C75.6147 6.05982 75.572 6.06122 75.5302 6.06842C75.3899 6.07372 75.2687 6.08142 75.1546 6.08552C75.1105 6.00662 74.9934 5.99702 74.8902 5.98982L74.8675 5.98772L74.8522 5.98712L74.851 5.96552L73.6464 6.00142C73.4815 6.00292 73.3451 6.00712 73.2139 6.01432L73.2162 6.05332L72.9129 6.03582L72.8794 6.03142C72.7399 6.00262 72.5983 5.98692 72.4564 5.98462L72.3297 6.00352L71.9183 5.98122C71.8323 5.97102 71.7565 5.95842 71.6778 5.94562L72.1964 5.85212L70.265 5.76342L70.2623 5.81702L70.2522 5.81642L70.2435 5.86952C70.2033 5.85882 70.1548 5.84792 70.0857 5.83222L70.0616 5.93222L70.0158 5.92852L70.002 5.91782L69.9621 5.91352C69.9737 5.89782 69.9884 5.88462 70.0054 5.87482C70.0223 5.86492 70.0411 5.85862 70.0607 5.85612C70.0344 5.85732 69.9401 5.85092 69.8504 5.84402L70.0333 5.74492C70.5424 5.71112 70.831 5.68512 70.9984 5.66272L71.0158 5.73112L71.5547 5.63472L71.5818 5.73542C71.8235 5.68812 72.0705 5.66852 72.3179 5.67722L72.3352 5.68352L72.3863 5.67892L73.3753 5.70832L73.2654 5.66912C73.3865 5.66552 73.5186 5.66002 73.6475 5.65722L73.6452 5.59242L73.749 5.59482C73.8714 5.60042 73.9599 5.60332 74.0572 5.60592L75.0608 5.62602C75.0798 5.62742 75.0998 5.62752 75.1209 5.62752L75.1211 5.52432C75.158 5.53242 75.2138 5.54082 75.3081 5.55542L75.3843 5.56742C75.4327 5.57352 75.4808 5.58242 75.5284 5.59392C75.5055 5.58582 75.485 5.57192 75.4689 5.55382L75.5759 5.58452L75.5794 5.61522L75.5991 5.61292L75.6696 5.60392L75.8064 5.60722L75.8263 5.46372C75.8323 5.42252 75.8222 5.38022 75.7981 5.34542C75.774 5.31072 75.7376 5.28612 75.6965 5.27672L74.6226 4.97972C74.5859 4.92112 74.5104 4.87162 74.3672 4.80742L74.3241 4.89782L74.3046 4.89292L74.2588 4.87992L74.2441 4.93662L74.1512 4.90142C74.1649 4.86592 74.1906 4.83642 74.2241 4.81822C74.2576 4.80002 74.2967 4.79412 74.3346 4.80162C74.288 4.79112 73.9653 4.68202 73.7471 4.60692L73.3362 4.47152L72.8892 4.32952L72.8817 4.35262C72.7965 4.32642 72.7224 4.30902 72.6446 4.28962C72.5408 4.26552 72.4533 4.24372 72.3613 4.22892C72.3385 4.15992 72.2896 4.10202 72.225 4.06782L72.2085 4.05502L72.1889 4.04902C71.829 3.92542 71.7727 3.92182 71.6998 3.92592C71.5988 3.90452 71.4997 3.87432 71.4037 3.83552L71.3782 3.82902C71.3292 3.81732 71.278 3.82482 71.2352 3.84982C71.158 3.81632 71.0789 3.78752 70.9984 3.76332L70.9663 3.75582L70.8117 3.73862C70.7135 3.72912 70.592 3.71702 70.4516 3.70052L70.4781 3.59622C70.3597 3.55562 70.307 3.53512 70.2728 3.52082L70.2869 3.46882C69.9063 3.35282 69.5159 3.23852 69.1423 3.13112L68.4645 2.93422L68.5147 3.00532L68.3682 2.97372C68.0358 2.90152 67.8898 2.86932 67.8067 2.88102L67.7634 2.82142L67.6894 2.81332C67.6262 2.80632 67.3537 2.74682 67.1109 2.68972L67.1179 2.65902C66.8938 2.59472 66.6663 2.54352 66.4367 2.50592C66.1448 2.45862 65.8565 2.38962 65.5742 2.29932L65.562 2.29602C65.4738 2.27372 65.3504 2.23422 65.2309 2.19382C64.9055 2.08682 64.8252 2.06242 64.7409 2.10412L64.5515 2.19812L64.0533 2.09062L64.0583 2.17092L64.0167 2.15922C64.0185 2.15402 64.0195 2.14852 64.0198 2.14302C64.0269 2.09982 64.0177 2.05532 63.994 2.01772C63.9703 1.98022 63.9337 1.95242 63.8912 1.93952C63.8317 1.89932 63.7288 1.87682 63.5357 1.83062L63.5228 1.88772L63.5114 1.88612L63.5035 1.87992C63.4433 1.82162 63.327 1.80012 63.0995 1.75602L63.053 1.74662L63.0278 1.75582C62.8864 1.73882 62.7461 1.71292 62.6077 1.67832C62.5523 1.66192 62.494 1.65902 62.4379 1.66982L62.2958 1.63662C62.1558 1.60482 61.9975 1.56812 61.7089 1.51152L61.6563 1.70502C61.6289 1.70632 61.5907 1.70652 61.5485 1.70772C61.5468 1.69602 61.5468 1.68422 61.5485 1.67262C61.5517 1.64202 61.564 1.61332 61.5839 1.59012C61.6038 1.56702 61.6304 1.55052 61.6602 1.54282C61.5794 1.54632 61.4984 1.54392 61.4177 1.53552C61.228 1.52282 60.9446 1.49612 60.6934 1.45932C60.6454 1.43282 60.5948 1.41142 60.5425 1.39542L60.5114 1.38662C60.4942 1.38342 60.4768 1.38122 60.4593 1.38012L59.1666 1.13352L58.7217 1.05512L58.2826 0.732422L58.5228 1.02302L58.0395 0.938522L57.8783 0.932623L57.8448 1.05002C57.835 1.08352 57.8364 1.11932 57.8485 1.15242C57.8607 1.18552 57.8832 1.21412 57.9126 1.23412L57.9171 1.23762L58.0243 1.31292L57.8863 1.29212L58.3531 1.59302L58.346 1.60202L58.4659 1.67582L58.5095 1.70262C58.5398 1.75652 58.581 1.80382 58.6305 1.84132L58.6499 1.86262L58.6848 1.87332C58.7409 1.90142 58.7953 1.93312 58.8475 1.96822C58.9461 2.02862 59.0721 2.10412 59.208 2.18312L59.8034 2.53172C59.8148 2.57912 59.8437 2.62092 59.8844 2.64862C59.9042 2.66362 59.9249 2.67732 59.9464 2.68962C59.9907 2.71692 60.0627 2.75862 60.1685 2.81942L60.1973 2.83252C60.2159 2.83982 60.291 2.87772 60.3402 2.90262C60.5062 2.98772 60.6267 3.04862 60.7048 2.90912C61.0373 3.09502 61.2799 3.22012 61.4735 3.31322L61.4373 3.37172L61.4505 3.38202L61.3571 3.46932L61.8494 3.68582L61.88 3.62502L61.9865 3.68212L62.9014 4.12082C63.1087 4.21522 63.3276 4.30842 63.5402 4.39882C63.683 4.45952 63.8268 4.51892 63.9682 4.58272C64.1393 4.65312 64.307 4.71982 64.4659 4.78172C64.6247 4.84352 64.7897 4.90822 64.9338 4.96992L64.9437 4.97762C65.3028 5.09542 65.4704 5.13932 65.549 5.05602L65.5838 5.06562L65.6275 5.14512L65.9855 5.27242L65.7828 5.43352L66.2461 5.36502L66.412 5.42312L66.3778 5.42642C65.8029 5.48642 65.3343 5.52802 64.9523 5.55452L63.6056 5.65622L63.7216 5.67532C63.5005 5.70962 63.3123 5.73022 63.1357 5.74942C62.8189 5.78862 62.5528 5.81972 62.2701 5.88022C62.2433 5.86862 62.2145 5.86302 62.1856 5.86392L62.1479 5.86762L62.0598 5.88572L62.0536 5.85712C61.762 5.89192 61.474 5.94912 61.1923 6.02842C61.1075 6.05222 61.0297 6.09502 60.9648 6.15362C60.6886 6.17772 60.4157 6.22582 60.1491 6.29752L60.1421 6.26312L59.9798 6.28842C59.7594 6.32322 59.4004 6.38002 59.0631 6.43722C58.8621 6.47162 58.6316 6.51392 58.4614 6.54652C58.3647 6.56502 58.27 6.59212 58.1785 6.62762C58.036 6.64652 57.7581 6.71292 57.6798 6.73352L57.1914 6.82882C56.8965 6.88602 56.7179 6.92142 56.2427 7.01882L56.2503 7.05362C56.1536 7.08152 56.0451 7.10022 55.9098 7.12592C55.7746 7.15172 55.6421 7.17542 55.4734 7.21432L55.3388 7.24062C54.7096 7.36352 54.5701 7.40142 54.434 7.43792C54.2979 7.47432 54.1811 7.50622 53.5489 7.62472L52.8802 7.75092L53.0521 7.80132L52.8841 7.83662C52.5337 7.90952 52.137 7.99162 51.798 8.09712L51.8031 8.11762C51.6196 8.15532 51.4032 8.18492 51.1903 8.21412C51.0593 8.23182 50.9329 8.24892 50.8179 8.26772L50.8079 8.23312C50.6791 8.26282 50.5762 8.28382 50.4974 8.30082C50.4186 8.31792 50.3661 8.33382 50.3243 8.35082C50.2546 8.36792 50.1943 8.41042 50.1553 8.47002C50.128 8.48072 50.0827 8.49812 50.0095 8.52162C49.9253 8.47242 49.81 8.50652 49.5789 8.57122C49.4647 8.59572 49.2367 8.67412 48.9236 8.78322L48.6523 8.87642C48.4748 8.93742 48.2399 9.01662 48.0086 9.08832C47.9505 9.10602 47.8935 9.12352 47.8372 9.14162C47.6872 9.18892 47.5458 9.23352 47.4242 9.26482L47.4375 9.31952L47.3822 9.34042C47.1913 9.40642 46.9445 9.47642 46.6825 9.55102C46.3111 9.65602 45.9315 9.76502 45.6415 9.87552L45.5596 9.87892L45.5356 9.88802C45.4599 9.91252 45.387 9.94462 45.3182 9.98402C45.2123 10.0264 45.0783 10.0789 44.9308 10.1354C44.5071 10.3008 44.0297 10.4864 43.8297 10.5845C43.6316 10.6165 43.438 10.6695 43.2522 10.7426C43.1367 10.7838 43.0018 10.8335 42.842 10.8948C42.7407 10.9326 42.6402 10.9761 42.5424 11.0176L42.4075 11.0756L42.3352 11.106C42.0307 11.2364 41.6651 11.3923 41.484 11.4526L41.4711 11.4136L41.3062 11.4802C41.166 11.5362 41.0262 11.5917 40.8868 11.6469L40.9279 11.6077L40.1077 11.9484C39.5244 12.1899 39.226 12.3342 39.005 12.4511L38.4804 12.6618C38.0837 12.8225 37.8218 12.9282 37.5851 13.0421C37.3087 13.1757 37.0604 13.3086 36.6188 13.5458L36.4998 13.5562L36.4676 13.5745C36.3813 13.6229 36.1113 13.7388 35.7704 13.8862C35.6659 13.9307 35.5532 13.9792 35.4366 14.0298C35.3201 14.0804 35.1812 14.1406 35.0291 14.2151L34.6099 14.4181C34.3398 14.5505 34.1024 14.6722 33.8892 14.7858L33.8823 14.7743C33.6244 14.914 33.3173 15.0681 32.9154 15.2599C32.6999 15.3656 32.4842 15.4742 32.274 15.5799C32.1546 15.6397 32.0374 15.6991 31.9243 15.7576C31.2102 16.118 30.7534 16.3651 30.557 16.5507C30.3936 16.6465 30.2328 16.7483 30.0757 16.8469C29.9873 16.9033 29.8985 16.959 29.8092 17.014L29.8553 17.0903L29.7851 17.1275C29.695 17.0954 29.5797 17.1553 29.4239 17.2373C29.2933 17.3059 29.125 17.3998 28.9621 17.4908C28.8561 17.5496 28.7297 17.6195 28.6247 17.677L28.6246 17.646L28.3756 17.7906C28.3309 17.8167 28.2845 17.8425 28.2391 17.8681C28.1615 17.9108 28.0815 17.9579 28.0044 18.0053L26.0858 19.1587C25.8869 19.2784 25.6795 19.4008 25.481 19.528L24.0939 20.409L23.871 20.5513C23.7162 20.6495 23.5621 20.7484 23.4072 20.8508L21.9643 21.8411C21.9307 21.8515 21.8991 21.8673 21.8708 21.888L21.5178 22.1375L21.5253 22.1496C21.4739 22.1911 21.4328 22.2262 21.3922 22.2606C21.2644 22.3676 21.1522 22.4629 20.8029 22.7184C20.7432 22.7624 20.6808 22.8027 20.6159 22.8391C20.5726 22.8483 20.5321 22.8673 20.4977 22.8946C20.4774 22.9057 20.4579 22.9181 20.4392 22.9316C20.4081 22.9539 20.3586 22.9917 20.2846 23.0486L19.5263 23.5998L19.559 23.6501L19.5281 23.6735C19.4571 23.7219 19.3919 23.7781 19.3339 23.8412C19.2078 23.9217 19.0383 24.0374 18.8466 24.1844C18.5936 24.3734 18.2882 24.6094 17.8826 24.9264L16.9594 25.6526L16.8726 25.7233C16.6663 25.893 16.5035 26.0274 16.4382 26.0746L16.4217 26.0876C16.0015 26.483 15.575 26.8362 15.0153 27.2954L15.0485 27.3368C15.0167 27.3667 14.9681 27.4115 14.8939 27.4755C14.7826 27.4827 14.6267 27.6163 14.2375 27.9461C13.9986 28.1482 13.7291 28.376 13.5502 28.4957C13.5404 28.5015 13.5296 28.5086 13.5157 28.5184L13.526 28.5336C13.4919 28.5773 13.2875 28.7609 13.1402 28.8929L13.0597 28.9664C12.8704 29.136 12.7492 29.2522 12.6897 29.3204C12.6674 29.3429 12.6479 29.3679 12.6316 29.3949C12.5548 29.4221 12.4852 29.4653 12.4271 29.5217L12.4171 29.5345C11.9847 29.9699 11.4895 30.4236 10.9798 30.8876C10.8711 30.9837 10.765 31.0858 10.6628 31.1858L10.1905 31.6439C9.88309 31.9434 9.63023 32.1945 9.39567 32.4331L9.36354 32.4648L9.3416 32.5634L8.91773 32.9147L8.76863 33.0463L8.7571 33.0611C8.69766 33.125 8.64388 33.194 8.59633 33.2673C8.49661 33.4173 8.37362 33.5503 8.2318 33.6617L8.25423 33.6885C8.25123 33.6923 8.24823 33.6962 8.24522 33.7C7.99901 33.9481 7.74379 34.2077 7.46784 34.4966L7.07808 34.9044L6.5317 35.5185C6.09883 36.0073 5.64961 36.5144 5.21179 37.0231C4.75679 37.5742 4.26609 38.1656 3.761 38.7593L3.57619 38.9746C3.53913 39.0221 3.50257 39.069 3.4655 39.1166C3.44397 39.1442 3.42243 39.1718 3.40089 39.1994L3.04379 39.6358C2.797 39.9361 2.55409 40.2259 2.32208 40.4964L2.34707 40.5159C2.307 40.5673 2.26493 40.6212 2.23839 40.6553C2.1883 40.7195 2.10366 40.8281 1.98396 40.9816L2.01087 41.0026L1.8946 41.1382L1.4867 41.6465L1.47845 41.6679C1.35045 41.8814 1.2101 42.0872 1.05811 42.2842C1.04809 42.2971 1.03857 42.3093 1.02905 42.3215L0.971924 42.277L0.691656 42.6296L0.768511 42.6895C0.717908 42.7553 0.677872 42.8286 0.649787 42.9068L0.644837 42.9268L0.413216 43.0436L0.269775 43.3388L0.505453 43.4781L0.419744 43.8048L0.937936 43.0602L1.15179 42.8469C1.21567 42.7934 1.28813 42.7208 1.38491 42.6237C1.41174 42.5961 1.44288 42.5656 1.47953 42.5281L1.51109 42.718L1.74085 42.3135C1.93554 42.008 2.15419 41.7184 2.39483 41.4476C2.67005 41.1395 2.92626 40.815 3.16206 40.4758C3.1885 40.4642 3.21255 40.448 3.23315 40.4279L3.24767 40.4093L3.2622 40.3907C3.43964 40.1063 3.63958 39.8367 3.86019 39.5844L3.86808 39.5906L4.03636 39.3747L4.51051 38.8086L5.66855 37.4587C5.7948 37.3144 5.93564 37.1608 6.08482 36.9993C6.19184 36.8824 6.30619 36.7588 6.42472 36.627L7.1886 35.7828L7.04413 35.8705C7.11765 35.7884 7.19268 35.7044 7.26872 35.619L7.31209 35.5702C7.50939 35.3429 7.71631 35.1303 7.91219 34.936C8.02416 34.8141 8.14668 34.7023 8.27839 34.6018L8.29682 34.5903L8.30984 34.5736C8.42249 34.4549 8.49847 34.3736 8.50817 34.2975C8.51785 34.2851 8.53019 34.272 8.54517 34.2582L8.6795 34.1564L8.76456 34.0161C8.80154 34.0149 8.83752 34.005 8.86963 33.9874C8.90174 33.9697 8.92908 33.9447 8.94946 33.9144C9.03187 33.8372 9.12964 33.7389 9.24896 33.6129L9.29779 33.5611C9.38662 33.4662 9.47913 33.3679 9.56859 33.2775L9.7322 33.1097C9.83984 32.9973 9.93314 32.9007 9.98725 32.8489L10.0179 32.819L10.0021 32.8068C10.4539 32.3492 10.9277 31.8757 11.3853 31.4269C12.0883 30.7665 12.66 30.2228 13.1658 29.7164L13.1517 29.6992C13.2689 29.584 13.3728 29.4915 13.4547 29.419C13.4841 29.3934 13.5109 29.3699 13.5344 29.3479C13.6525 29.2438 13.7412 29.1693 13.839 29.0927L13.8754 29.0622C14.0519 28.9158 14.2516 28.7503 14.6732 28.3694C14.8162 28.2267 15.0237 28.0229 15.2613 27.8198C15.3262 27.788 15.3876 27.7497 15.4445 27.7054C15.4666 27.6906 15.4938 27.6706 15.5186 27.6537L15.5379 27.675C16.1365 27.147 16.1642 27.1169 16.2562 27.0152C16.3059 26.9609 16.3734 26.8865 16.5761 26.6862L16.7438 26.5876L16.7563 26.5715C16.7898 26.5367 16.8176 26.5078 16.8439 26.4808C16.8929 26.4302 16.9347 26.3874 16.991 26.3342C17.0332 26.2937 17.0844 26.2469 17.1553 26.1844C17.1851 26.157 17.2172 26.1294 17.2578 26.0949C17.272 26.0911 17.2859 26.0864 17.2994 26.0809L17.3388 26.1292C17.8782 25.7503 18.2578 25.4327 18.5631 25.178C18.8684 24.9233 19.1111 24.719 19.3715 24.5761L19.3934 24.5642L19.4079 24.5456C19.4652 24.487 19.5497 24.3989 19.5374 24.3077C19.617 24.2572 19.6993 24.2098 19.7946 24.154C20.1151 23.9732 20.4249 23.7748 20.7227 23.5596L20.728 23.5637C20.8839 23.4612 21.0243 23.3516 21.1731 23.2353L21.2215 23.1976C21.3018 23.1352 21.3843 23.0715 21.4755 23.0073C21.5636 22.9413 21.6557 22.8806 21.7513 22.8257L21.7697 22.8142L21.7827 22.7975C21.8202 22.7603 21.8601 22.7254 21.902 22.6932L21.9186 22.7154C22.0799 22.6142 22.2358 22.5047 22.3855 22.3874C22.4789 22.3177 22.5955 22.232 22.6245 22.2164C22.6088 22.2242 22.5915 22.2284 22.5738 22.2285L22.612 22.2025L22.6482 22.2307C22.8281 22.061 23.0256 21.9108 23.2375 21.7823L23.2694 21.7617C23.3864 21.6835 23.5083 21.603 23.6338 21.5139C23.6378 21.5087 23.6451 21.5062 23.6516 21.5019L23.6361 21.5529L24.1083 21.2073L24.1826 21.1527L24.2067 21.1828C24.4508 21.004 24.7055 20.8398 24.9694 20.6909C25.1866 20.5627 25.4109 20.4308 25.6248 20.2784L25.5775 20.2116C25.698 20.1395 25.8226 20.0743 25.9507 20.0161C26.3096 19.8466 26.6563 19.6535 26.9886 19.4382C27.0159 19.4222 27.0397 19.4078 27.0617 19.3918L27.0477 19.3706C27.2043 19.2861 27.331 19.2186 27.4054 19.1826L27.4219 19.1737C27.57 19.0827 27.6673 19.0201 27.7261 18.9813C27.784 18.95 27.8323 18.9039 27.8662 18.8477C27.9567 18.7913 28.0346 18.7333 28.1189 18.6699C28.1854 18.6184 28.2546 18.5691 28.3458 18.5049L28.3617 18.5265L28.4893 18.4577C28.7805 18.2995 28.9378 18.2062 29.0305 18.1442L28.8641 18.3481L29.7486 17.7786C29.9989 17.6174 30.1747 17.5097 30.3553 17.4068L30.3887 17.3884C30.5519 17.2956 30.7212 17.2004 30.9752 17.0751L31.2266 16.9613C31.5042 16.8368 31.8684 16.6353 32.1341 16.4882C32.226 16.438 32.3064 16.3932 32.3684 16.361L32.3562 16.3402L32.97 15.9728L32.988 16.0013L33.0657 15.9585C33.0891 15.9448 33.1131 15.9315 33.136 15.9184L33.1655 15.9713L33.1896 15.9581L34.0858 15.4752C34.1223 15.4623 34.1773 15.4432 34.2648 15.4081C34.3318 15.3819 34.4332 15.3412 34.4576 15.3343C34.4217 15.3409 34.3844 15.3355 34.3516 15.3188C34.3187 15.3021 34.2921 15.2752 34.2759 15.2422L34.2704 15.2276C34.3178 15.2088 34.3598 15.1941 34.3895 15.1831L34.4778 15.3408C34.7299 15.2275 35.0263 15.064 35.3384 14.8942L35.4147 14.8504C35.5611 14.7683 35.7138 14.6931 35.8747 14.6141L35.8989 14.602L35.7665 14.7921L36.2256 14.5013C36.4302 14.4068 36.5263 14.3608 36.5551 14.2914C36.5917 14.2714 36.6445 14.2444 36.7227 14.2051C36.9378 14.1095 37.1459 14.0186 37.3546 13.9283C37.7909 13.7386 38.2428 13.5425 38.7745 13.2898L39.2403 13.153L39.261 13.1455C39.4204 13.0765 39.5314 13.0236 39.5381 12.9256L39.651 12.8742L39.6643 12.868C39.6733 12.8795 39.6836 12.89 39.695 12.8991C39.7091 12.9098 39.7243 12.9189 39.7403 12.9263L39.8059 12.9547L39.8704 12.9275C39.9684 12.8872 40.0737 12.8401 40.1783 12.7926L40.3442 12.7154C40.3876 12.6976 40.4317 12.6803 40.4803 12.6573L40.4467 12.5825L40.527 12.5418C40.6408 12.488 40.746 12.4399 40.8463 12.3952C40.9153 12.4706 41.031 12.4359 41.231 12.3759L41.3214 12.3493L41.3312 12.3043C41.4592 12.2254 41.927 12.0386 42.2813 11.8985C42.5304 11.7984 42.788 11.6956 42.9769 11.6146C43.1062 11.5699 43.2287 11.5085 43.3412 11.4318L43.4317 11.4052L43.4376 11.4233C43.665 11.3685 43.883 11.2826 44.0855 11.1682C44.1853 11.1123 44.2881 11.0618 44.3935 11.0169L44.5766 11.0408L45.8439 10.5994L45.7175 10.7074L46.7104 10.2535C46.7274 10.2509 46.7442 10.247 46.7606 10.242L46.7899 10.2328L46.8317 10.1982C46.9358 10.1513 47.121 10.0736 47.2785 10.0085L47.2868 10.0439C47.5009 10.0227 47.7097 9.96882 47.9058 9.88402C48.023 9.83802 48.169 9.77942 48.4031 9.71092L48.4101 9.74112C48.6804 9.69952 48.9472 9.64012 49.2089 9.56342C49.4036 9.50872 49.6184 9.45402 49.8669 9.39682L49.8381 9.27112L49.9413 9.23482C49.9812 9.23282 50.0208 9.22732 50.0596 9.21862L50.077 9.28172L50.4574 9.20022L50.5431 9.13492L50.725 9.08052C50.8911 9.03522 51.0534 8.97812 51.2109 8.90982C51.2625 8.88702 51.3114 8.86622 51.3977 8.83542C51.8483 8.72092 51.9709 8.72352 52.0792 8.72542L52.1264 8.72602L52.1474 8.72062C52.3939 8.65772 52.5127 8.62742 52.5355 8.53992C52.7646 8.48712 52.9699 8.43242 53.1692 8.38012C53.2672 8.35322 53.3659 8.32692 53.4659 8.30162C53.6947 8.24242 53.9364 8.17782 54.2067 8.10342L54.0631 8.19812L55.0767 7.91412C55.1669 7.89692 55.2524 7.86222 55.3285 7.81202C55.336 7.80232 55.3649 7.78562 55.6494 7.71202L55.6805 7.70322L55.7013 7.68742C55.8926 7.63892 56.0874 7.60372 56.2841 7.58202C56.6498 7.53582 57.0123 7.47022 57.3701 7.38542C57.3885 7.39562 57.4085 7.40242 57.4292 7.40572L57.4629 7.41132L59.0854 7.00612L59.7597 6.92562C59.8725 6.91642 60.0204 6.89752 60.2189 6.87042L60.2158 6.85152L60.2453 6.84872L60.2429 6.82202L60.3296 6.80292C60.345 6.80682 60.3607 6.80902 60.3764 6.80942C60.4508 6.80302 60.5239 6.78752 60.594 6.76322L60.6558 6.74632L60.8992 6.77282L60.9625 6.72822C61.2154 6.69092 61.4749 6.66292 61.727 6.63632C61.8487 6.62382 61.9707 6.61052 62.093 6.59642L63.1677 6.36002L63.1746 6.40672L63.1815 6.40602C63.2879 6.39282 63.3431 6.38842 63.3706 6.38702L63.3776 6.41732L63.9834 6.30812L64.5306 6.22552C64.6523 6.24222 64.7755 6.24082 64.8961 6.22132C64.9793 6.21492 65.0734 6.20662 65.1708 6.20102L66.3733 6.13252L66.1263 6.07942C66.313 6.06202 66.4977 6.03062 66.679 5.98562L66.6905 5.98322C66.8385 5.95152 66.9884 5.92842 67.1395 5.91392L67.1446 5.93442C67.2403 5.92012 67.3762 5.90842 67.5124 5.89482L67.6468 5.99342L67.5826 5.88752C67.7314 5.87552 67.8789 5.86652 67.9865 5.86262L67.9891 5.88632L68.124 5.87582L69.3574 6.20952L68.9634 5.96432L69.1103 5.99412L69.1479 6.00272L69.1509 5.99892C69.1583 6.04352 69.1829 6.08392 69.2195 6.11132L69.2346 6.12312L69.2636 6.14562L69.2996 6.15092L69.4012 6.16822C69.4649 6.17862 69.5293 6.18962 69.595 6.19742L69.7074 6.21172C69.745 6.23422 69.7863 6.24962 69.8293 6.25722L69.8928 6.27062L69.9189 6.25472C70.0228 6.25832 70.1266 6.26722 70.2299 6.28132C70.4007 6.30202 70.6131 6.33842 70.8182 6.37342L70.9433 6.39452L70.9595 6.39672C71.122 6.40782 71.3425 6.42172 71.3787 6.25062L71.4898 6.26382C71.4879 6.27232 71.4865 6.28092 71.4857 6.28952C71.482 6.31442 71.485 6.33992 71.4944 6.36362C71.5038 6.38722 71.5192 6.40812 71.5391 6.42412C71.6146 6.46652 71.6989 6.49042 71.7848 6.49382L71.8033 6.49582C71.8334 6.49662 71.8654 6.49882 71.8974 6.50112C71.9295 6.50332 71.9869 6.50682 72.0287 6.50742L72.4037 6.51152L72.3018 6.40112C72.341 6.41772 72.3818 6.42982 72.4236 6.43722L72.4445 6.44012C72.6355 6.46212 72.8277 6.46642 73.0187 6.45292C73.068 6.44792 73.1232 6.44352 73.2447 6.44212L73.2441 6.39412L73.3407 6.39622L73.9978 6.42722L74.2401 6.42802L74.2386 6.53022L74.8532 6.56422L74.8579 6.53792C75.1691 6.53572 75.2214 6.52282 75.2812 6.50852L75.1193 6.64152L74.9158 6.81442L74.8666 6.75022L74.3809 7.11312L74.2446 7.21342C74.2309 7.22072 74.2181 7.22942 74.2064 7.23942L74.1683 7.20152L74.0023 7.33862C73.9676 7.33952 73.9338 7.34852 73.9036 7.36492C73.7568 7.42652 73.6149 7.49892 73.4792 7.58142L73.4539 7.59892C73.4429 7.61312 73.4278 7.62302 73.4136 7.63572C73.387 7.66042 73.3531 7.69172 73.2984 7.73482C73.2698 7.73762 73.2422 7.74592 73.217 7.75922L73.2131 7.75612L73.2036 7.76832C73.179 7.78292 73.1555 7.79902 73.1331 7.81672L73.1403 7.82232L73.1157 7.84442C72.9934 7.94842 72.9111 8.02162 72.9033 8.09922C72.8648 8.12292 72.8221 8.15062 72.7748 8.18282L72.7525 8.20062C72.7063 8.23792 72.6735 8.28892 72.6588 8.34652C72.639 8.36512 72.6092 8.39252 72.5656 8.43082L72.7855 8.67982C72.8235 8.64742 72.8677 8.60962 72.912 8.57182C72.9805 8.51372 73.0505 8.45362 73.101 8.40932L73.1095 8.39842L73.1715 8.47872C73.2032 8.45702 73.2419 8.43042 73.2811 8.40312C73.3529 8.35582 73.4715 8.27272 73.5258 8.23962L73.5899 8.24412L73.69 8.04942L73.7545 7.99652L74.4213 7.49892C74.4516 7.48542 74.4812 7.47012 74.5097 7.45322C74.5353 7.43802 74.568 7.41912 74.61 7.39092L74.8054 7.25412L74.785 7.22482L74.9009 7.13852L74.9629 7.21062L75.6052 6.67132L75.3893 6.41722L75.3455 6.48422ZM74.8856 6.06062L74.8936 6.07622L74.8953 6.09712L74.8607 6.09802C74.8673 6.08452 74.8757 6.07192 74.8856 6.06062ZM67.7211 5.23432L67.7371 5.25302L67.7183 5.24862L67.7211 5.23432ZM67.7513 5.25792C67.7421 5.24862 67.7317 5.24052 67.7204 5.23382L67.7266 5.20552L67.6727 5.19342L67.4912 5.15522L67.3433 5.11742L67.2566 5.09312L67.2473 5.12932C67.1579 5.09782 67.07 5.06962 66.9815 5.04092L66.659 4.93712L66.5949 4.91502C66.493 4.88202 66.3928 4.84352 66.2948 4.79982L65.8203 4.58072L65.8784 4.67972C65.8482 4.66962 65.8164 4.66032 65.7803 4.64972L65.7762 4.66302L65.6635 4.62062C65.6144 4.58832 65.5589 4.56692 65.5011 4.55802L65.4378 4.53762C65.4089 4.52852 65.3765 4.51872 65.3382 4.50542L65.3284 4.49772L65.2531 4.47102L65.2215 4.45882L65.1911 4.53842C65.1706 4.53072 65.1509 4.52362 65.1313 4.51762C65.1292 4.39822 65.0119 4.36042 64.8271 4.30212C64.7356 4.27312 64.6095 4.23572 64.5366 4.21812C64.4809 4.20082 64.4212 4.20522 64.3696 4.23052C64.3479 4.21362 64.3184 4.19992 64.2817 4.18062L64.304 4.12362C64.1739 4.06962 64.0448 4.01442 63.9157 3.95922L63.6993 3.86692C63.6112 3.82412 63.515 3.77802 63.4085 3.72912C63.302 3.68012 63.2108 3.64002 63.1135 3.58992C62.8977 3.48472 62.7066 3.39662 62.559 3.33532C62.4718 3.29002 62.3708 3.24742 62.2817 3.21002C62.2224 3.18442 62.1669 3.16082 62.1198 3.13852L62.0904 3.12482L62.0929 3.12162L61.7577 2.95542C61.5801 2.86752 61.4015 2.78092 61.2258 2.68932L61.2212 2.68582L61.1644 2.65292C60.9899 2.54882 60.8075 2.44692 60.6308 2.34842C60.3728 2.20512 60.1065 2.05632 59.8455 1.89112L59.7612 1.83262L60.2579 1.92852C60.4758 1.97842 60.696 2.01702 60.9176 2.04422C61.1303 2.11812 61.5534 2.21352 62.2418 2.34532L62.685 2.43262C63.1082 2.51572 63.5091 2.59492 63.7862 2.66222L63.8739 2.68512L63.913 2.64852C64.4043 2.75672 64.8797 2.85682 65.5177 2.98962L65.9204 3.07322L65.8928 3.03412C66.0788 3.07592 66.284 3.13262 66.5165 3.19612C66.7872 3.27292 67.0675 3.35092 67.3428 3.42722C67.8573 3.60322 68.412 3.73712 68.9485 3.86732C69.4762 3.98432 69.9978 4.12932 70.5111 4.30162L70.5307 4.30762C70.7011 4.34732 70.8693 4.39672 71.0344 4.45552L71.0314 4.45932L71.4417 4.60372C71.5379 4.64152 71.6363 4.68202 71.7257 4.72182C72.0495 4.85652 72.1565 4.90072 72.2334 4.85632C72.2905 4.87462 72.3521 4.87042 72.4052 4.84462L72.515 4.87032C72.5813 4.90572 72.6504 4.93542 72.7215 4.95902C72.7629 4.97372 72.8058 4.98652 72.8556 5.00262L72.9805 5.04012L73.0508 5.05972L72.8092 5.09862L72.6433 5.08912L72.6348 5.01742C72.3865 5.03662 72.2124 5.04852 72.075 5.05812L71.7519 5.08512C71.6738 5.09032 71.5982 5.09652 71.4997 5.10642L71.5032 5.10192L71.0241 5.12712C70.9063 5.13332 70.7635 5.14702 70.6254 5.16022C70.4441 5.18302 70.2613 5.19402 70.078 5.19312L70.0673 5.19192C69.9626 5.19082 69.6602 5.18442 69.2102 5.20752C68.8567 5.23142 68.4402 5.26302 67.9354 5.30222L67.7513 5.25792ZM69.3252 5.79292L69.324 5.80122L69.3229 5.79312L69.3252 5.79292ZM64.0641 5.82262C64.0646 5.82972 64.0643 5.83672 64.0635 5.84382L64.0387 5.84302L64.0296 5.79782L64.0641 5.82262ZM45.7634 10.5469L45.7684 10.5622L45.704 10.5688C45.7236 10.5614 45.7411 10.5564 45.7634 10.5469ZM15.1505 27.4783C15.147 27.4828 15.1435 27.4873 15.14 27.4918C15.1321 27.4865 15.1246 27.4807 15.1176 27.4743C15.099 27.4523 15.0869 27.4256 15.0825 27.3974L15.1505 27.4783ZM13.6199 28.6854C13.6044 28.7053 13.579 28.7258 13.5513 28.7517L13.5375 28.741C13.5148 28.7137 13.5012 28.68 13.4989 28.6449C13.4966 28.6099 13.5057 28.5752 13.5247 28.5461L13.6199 28.6854ZM12.8748 29.3769C12.8715 29.3806 12.8685 29.3844 12.8658 29.3885L12.8349 29.351C12.8491 29.3582 12.8623 29.3671 12.8743 29.3776L12.8748 29.3769ZM8.36402 33.8267C8.354 33.8396 8.34021 33.8505 8.32938 33.8617C8.32344 33.8581 8.31793 33.8538 8.31296 33.8489C8.29576 33.8308 8.28296 33.809 8.27558 33.7853C8.26819 33.7616 8.26641 33.7367 8.27041 33.7124L8.36402 33.8267ZM15.2699 27.6272C15.2915 27.613 15.3156 27.5957 15.3404 27.5788C15.3548 27.6004 15.3639 27.6249 15.3672 27.6504C15.3704 27.6759 15.3676 27.7016 15.359 27.7256L15.2699 27.6272ZM15.3844 27.5697L15.3741 27.5545C15.3876 27.5454 15.3999 27.5364 15.4122 27.5274L15.5067 27.631C15.4833 27.6301 15.4602 27.6242 15.439 27.6137C15.4179 27.6033 15.3991 27.5885 15.3839 27.5704L15.3844 27.5697ZM45.7745 10.5597L45.866 10.5278L45.9924 10.4848L45.925 10.5428L45.7745 10.5597ZM60.4876 6.70602L60.5393 6.68852C60.5326 6.71572 60.5193 6.74082 60.5004 6.76142L60.4876 6.70602Z" fill="#231F20"/>
</svg>
