<svg width="83" height="67" viewBox="0 0 83 67" fill="none" xmlns="http://www.w3.org/2000/svg">
<path d="M8.50391 9.69434C8.16667 10.1774 7.69499 10.5397 7.08887 10.7812C6.4873 11.0182 5.78548 11.1367 4.9834 11.1367C4.1722 11.1367 3.45215 10.9476 2.82324 10.5693C2.19434 10.1865 1.70671 9.64421 1.36035 8.94238C1.01855 8.24056 0.843099 7.42708 0.833984 6.50195V5.63379C0.833984 4.13444 1.18262 2.97233 1.87988 2.14746C2.58171 1.32259 3.56608 0.910156 4.83301 0.910156C5.87207 0.910156 6.70833 1.17676 7.3418 1.70996C7.97526 2.23861 8.36263 2.99056 8.50391 3.96582H7.19141C6.94531 2.64876 6.16146 1.99023 4.83984 1.99023C3.96029 1.99023 3.29264 2.30013 2.83691 2.91992C2.38574 3.53516 2.15788 4.42839 2.15332 5.59961V6.41309C2.15332 7.52962 2.40853 8.41829 2.91895 9.0791C3.42936 9.73535 4.11979 10.0635 4.99023 10.0635C5.48242 10.0635 5.91309 10.0088 6.28223 9.89941C6.65137 9.79004 6.95671 9.60547 7.19824 9.3457V7.11035H4.89453V6.04395H8.50391V9.69434ZM10.165 7.2334C10.165 6.50879 10.3063 5.8571 10.5889 5.27832C10.876 4.69954 11.2725 4.25293 11.7783 3.93848C12.2887 3.62402 12.8698 3.4668 13.5215 3.4668C14.5286 3.4668 15.3421 3.81543 15.9619 4.5127C16.5863 5.20996 16.8984 6.13737 16.8984 7.29492V7.38379C16.8984 8.10384 16.7594 8.75098 16.4814 9.3252C16.208 9.89486 15.8138 10.3392 15.2988 10.6582C14.7884 10.9772 14.2005 11.1367 13.5352 11.1367C12.5326 11.1367 11.7191 10.7881 11.0947 10.0908C10.4749 9.39355 10.165 8.4707 10.165 7.32227V7.2334ZM11.4365 7.38379C11.4365 8.2041 11.6257 8.86263 12.0039 9.35938C12.3867 9.85612 12.8971 10.1045 13.5352 10.1045C14.1777 10.1045 14.6882 9.85384 15.0664 9.35254C15.4447 8.84668 15.6338 8.1403 15.6338 7.2334C15.6338 6.4222 15.4401 5.76595 15.0527 5.26465C14.6699 4.75879 14.1595 4.50586 13.5215 4.50586C12.8971 4.50586 12.3936 4.75423 12.0107 5.25098C11.6279 5.74772 11.4365 6.45866 11.4365 7.38379ZM18.1494 7.2334C18.1494 6.50879 18.2907 5.8571 18.5732 5.27832C18.8604 4.69954 19.2568 4.25293 19.7627 3.93848C20.2731 3.62402 20.8542 3.4668 21.5059 3.4668C22.513 3.4668 23.3265 3.81543 23.9463 4.5127C24.5706 5.20996 24.8828 6.13737 24.8828 7.29492V7.38379C24.8828 8.10384 24.7438 8.75098 24.4658 9.3252C24.1924 9.89486 23.7982 10.3392 23.2832 10.6582C22.7728 10.9772 22.1849 11.1367 21.5195 11.1367C20.5169 11.1367 19.7035 10.7881 19.0791 10.0908C18.4593 9.39355 18.1494 8.4707 18.1494 7.32227V7.2334ZM19.4209 7.38379C19.4209 8.2041 19.61 8.86263 19.9883 9.35938C20.3711 9.85612 20.8815 10.1045 21.5195 10.1045C22.1621 10.1045 22.6725 9.85384 23.0508 9.35254C23.429 8.84668 23.6182 8.1403 23.6182 7.2334C23.6182 6.4222 23.4245 5.76595 23.0371 5.26465C22.6543 4.75879 22.1439 4.50586 21.5059 4.50586C20.8815 4.50586 20.3779 4.75423 19.9951 5.25098C19.6123 5.74772 19.4209 6.45866 19.4209 7.38379ZM26.1611 7.24023C26.1611 6.10547 26.43 5.19401 26.9678 4.50586C27.5055 3.81315 28.2096 3.4668 29.0801 3.4668C29.946 3.4668 30.6318 3.76302 31.1377 4.35547V0.5H32.4023V11H31.2402L31.1787 10.207C30.6729 10.8268 29.9688 11.1367 29.0664 11.1367C28.2096 11.1367 27.5101 10.7858 26.9678 10.084C26.43 9.38216 26.1611 8.46615 26.1611 7.33594V7.24023ZM27.4258 7.38379C27.4258 8.22233 27.599 8.87858 27.9453 9.35254C28.2917 9.8265 28.7702 10.0635 29.3809 10.0635C30.1829 10.0635 30.7686 9.70345 31.1377 8.9834V5.58594C30.7594 4.88867 30.1784 4.54004 29.3945 4.54004C28.7747 4.54004 28.2917 4.7793 27.9453 5.25781C27.599 5.73633 27.4258 6.44499 27.4258 7.38379ZM38.042 11V1.04688H41.2959C42.376 1.04688 43.1872 1.27018 43.7295 1.7168C44.2764 2.16341 44.5498 2.82422 44.5498 3.69922C44.5498 4.16406 44.4176 4.5765 44.1533 4.93652C43.889 5.29199 43.529 5.56771 43.0732 5.76367C43.611 5.91406 44.0348 6.20117 44.3447 6.625C44.6592 7.04427 44.8164 7.54557 44.8164 8.12891C44.8164 9.02214 44.527 9.72396 43.9482 10.2344C43.3695 10.7448 42.5514 11 41.4941 11H38.042ZM39.3545 6.34473V9.92676H41.5215C42.1322 9.92676 42.613 9.76953 42.9639 9.45508C43.3193 9.13607 43.4971 8.69857 43.4971 8.14258C43.4971 6.94401 42.8454 6.34473 41.542 6.34473H39.3545ZM39.3545 5.29199H41.3369C41.9111 5.29199 42.3691 5.14844 42.7109 4.86133C43.0573 4.57422 43.2305 4.18457 43.2305 3.69238C43.2305 3.14551 43.071 2.74902 42.752 2.50293C42.4329 2.25228 41.9476 2.12695 41.2959 2.12695H39.3545V5.29199ZM50.1416 4.73828C49.9502 4.70638 49.7428 4.69043 49.5195 4.69043C48.6901 4.69043 48.1273 5.04362 47.8311 5.75V11H46.5664V3.60352H47.7969L47.8174 4.45801C48.2321 3.7972 48.82 3.4668 49.5811 3.4668C49.8271 3.4668 50.014 3.4987 50.1416 3.5625V4.73828ZM55.6035 11C55.5306 10.8542 55.4714 10.5944 55.4258 10.2207C54.8379 10.8314 54.1361 11.1367 53.3203 11.1367C52.5911 11.1367 51.9919 10.9316 51.5225 10.5215C51.0576 10.1068 50.8252 9.58268 50.8252 8.94922C50.8252 8.17904 51.1169 7.58203 51.7002 7.1582C52.2881 6.72982 53.113 6.51562 54.1748 6.51562H55.4053V5.93457C55.4053 5.49251 55.2731 5.1416 55.0088 4.88184C54.7445 4.61751 54.3548 4.48535 53.8398 4.48535C53.3887 4.48535 53.0104 4.59928 52.7051 4.82715C52.3997 5.05501 52.2471 5.33073 52.2471 5.6543H50.9756C50.9756 5.28516 51.1055 4.92969 51.3652 4.58789C51.6296 4.24154 51.985 3.9681 52.4316 3.76758C52.8828 3.56706 53.3773 3.4668 53.915 3.4668C54.7673 3.4668 55.4349 3.68099 55.918 4.10938C56.401 4.5332 56.6517 5.11882 56.6699 5.86621V9.27051C56.6699 9.94954 56.7565 10.4896 56.9297 10.8906V11H55.6035ZM53.5049 10.0361C53.9014 10.0361 54.2773 9.93359 54.6328 9.72852C54.9883 9.52344 55.2458 9.25684 55.4053 8.92871V7.41113H54.4141C52.8646 7.41113 52.0898 7.86458 52.0898 8.77148C52.0898 9.16797 52.222 9.47786 52.4863 9.70117C52.7507 9.92448 53.0902 10.0361 53.5049 10.0361ZM59.8486 3.60352L59.8896 4.5332C60.4548 3.82227 61.193 3.4668 62.1045 3.4668C63.6676 3.4668 64.4561 4.34863 64.4697 6.1123V11H63.2051V6.10547C63.2005 5.57227 63.0775 5.17806 62.8359 4.92285C62.599 4.66764 62.2275 4.54004 61.7217 4.54004C61.3115 4.54004 60.9515 4.64941 60.6416 4.86816C60.3317 5.08691 60.0902 5.37402 59.917 5.72949V11H58.6523V3.60352H59.8486ZM66.0693 7.24023C66.0693 6.10547 66.3382 5.19401 66.876 4.50586C67.4137 3.81315 68.1178 3.4668 68.9883 3.4668C69.8542 3.4668 70.54 3.76302 71.0459 4.35547V0.5H72.3105V11H71.1484L71.0869 10.207C70.5811 10.8268 69.877 11.1367 68.9746 11.1367C68.1178 11.1367 67.4183 10.7858 66.876 10.084C66.3382 9.38216 66.0693 8.46615 66.0693 7.33594V7.24023ZM67.334 7.38379C67.334 8.22233 67.5072 8.87858 67.8535 9.35254C68.1999 9.8265 68.6784 10.0635 69.2891 10.0635C70.0911 10.0635 70.6768 9.70345 71.0459 8.9834V5.58594C70.6676 4.88867 70.0866 4.54004 69.3027 4.54004C68.6829 4.54004 68.1999 4.7793 67.8535 5.25781C67.5072 5.73633 67.334 6.44499 67.334 7.38379ZM78.5859 9.03809C78.5859 8.69629 78.4561 8.43197 78.1963 8.24512C77.9411 8.05371 77.4922 7.88965 76.8496 7.75293C76.2116 7.61621 75.7035 7.45215 75.3252 7.26074C74.9515 7.06934 74.6735 6.84147 74.4912 6.57715C74.3135 6.31283 74.2246 5.99837 74.2246 5.63379C74.2246 5.02767 74.4798 4.51497 74.9902 4.0957C75.5052 3.67643 76.1615 3.4668 76.959 3.4668C77.7975 3.4668 78.4766 3.68327 78.9961 4.11621C79.5202 4.54915 79.7822 5.10286 79.7822 5.77734H78.5107C78.5107 5.43099 78.3626 5.13249 78.0664 4.88184C77.7747 4.63118 77.4056 4.50586 76.959 4.50586C76.4987 4.50586 76.1387 4.60612 75.8789 4.80664C75.6191 5.00716 75.4893 5.26921 75.4893 5.59277C75.4893 5.89811 75.61 6.12826 75.8516 6.2832C76.0931 6.43815 76.5283 6.58626 77.1572 6.72754C77.7907 6.86882 78.3034 7.03743 78.6953 7.2334C79.0872 7.42936 79.3766 7.66634 79.5635 7.94434C79.7549 8.21777 79.8506 8.55273 79.8506 8.94922C79.8506 9.61003 79.5863 10.141 79.0576 10.542C78.529 10.9385 77.8431 11.1367 77 11.1367C76.4076 11.1367 75.8835 11.0319 75.4277 10.8223C74.972 10.6126 74.6143 10.321 74.3545 9.94727C74.0993 9.56901 73.9717 9.16113 73.9717 8.72363H75.2363C75.2591 9.14746 75.4277 9.4847 75.7422 9.73535C76.0612 9.98145 76.4805 10.1045 77 10.1045C77.4785 10.1045 77.8613 10.0088 78.1484 9.81738C78.4401 9.62142 78.5859 9.36165 78.5859 9.03809ZM81.457 12.9824L80.7393 12.4902C81.1676 11.8932 81.391 11.278 81.4092 10.6445V9.50293H82.6465V10.4941C82.6465 10.9544 82.5326 11.4147 82.3047 11.875C82.0814 12.3353 81.7988 12.7044 81.457 12.9824ZM6.64453 25.6045H2.46777V30H1.15527V20.0469H7.32129V21.127H2.46777V24.5312H6.64453V25.6045ZM10.0693 30H8.80469V22.6035H10.0693V30ZM8.70215 20.6416C8.70215 20.4365 8.76367 20.2633 8.88672 20.1221C9.01432 19.9808 9.20117 19.9102 9.44727 19.9102C9.69336 19.9102 9.88021 19.9808 10.0078 20.1221C10.1354 20.2633 10.1992 20.4365 10.1992 20.6416C10.1992 20.8467 10.1354 21.0176 10.0078 21.1543C9.88021 21.291 9.69336 21.3594 9.44727 21.3594C9.20117 21.3594 9.01432 21.291 8.88672 21.1543C8.76367 21.0176 8.70215 20.8467 8.70215 20.6416ZM13.2959 22.6035L13.3369 23.5332C13.902 22.8223 14.6403 22.4668 15.5518 22.4668C17.1149 22.4668 17.9033 23.3486 17.917 25.1123V30H16.6523V25.1055C16.6478 24.5723 16.5247 24.1781 16.2832 23.9229C16.0462 23.6676 15.6748 23.54 15.1689 23.54C14.7588 23.54 14.3988 23.6494 14.0889 23.8682C13.779 24.0869 13.5374 24.374 13.3643 24.7295V30H12.0996V22.6035H13.2959ZM19.5166 26.2402C19.5166 25.1055 19.7855 24.194 20.3232 23.5059C20.861 22.8132 21.5651 22.4668 22.4355 22.4668C23.3014 22.4668 23.9873 22.763 24.4932 23.3555V19.5H25.7578V30H24.5957L24.5342 29.207C24.0283 29.8268 23.3242 30.1367 22.4219 30.1367C21.5651 30.1367 20.8656 29.7858 20.3232 29.084C19.7855 28.3822 19.5166 27.4661 19.5166 26.3359V26.2402ZM20.7812 26.3838C20.7812 27.2223 20.9544 27.8786 21.3008 28.3525C21.6471 28.8265 22.1257 29.0635 22.7363 29.0635C23.5384 29.0635 24.124 28.7035 24.4932 27.9834V24.5859C24.1149 23.8887 23.5339 23.54 22.75 23.54C22.1302 23.54 21.6471 23.7793 21.3008 24.2578C20.9544 24.7363 20.7812 25.445 20.7812 26.3838ZM38.7461 28.6943C38.4089 29.1774 37.9372 29.5397 37.3311 29.7812C36.7295 30.0182 36.0277 30.1367 35.2256 30.1367C34.4144 30.1367 33.6943 29.9476 33.0654 29.5693C32.4365 29.1865 31.9489 28.6442 31.6025 27.9424C31.2607 27.2406 31.0853 26.4271 31.0762 25.502V24.6338C31.0762 23.1344 31.4248 21.9723 32.1221 21.1475C32.8239 20.3226 33.8083 19.9102 35.0752 19.9102C36.1143 19.9102 36.9505 20.1768 37.584 20.71C38.2174 21.2386 38.6048 21.9906 38.7461 22.9658H37.4336C37.1875 21.6488 36.4036 20.9902 35.082 20.9902C34.2025 20.9902 33.5348 21.3001 33.0791 21.9199C32.6279 22.5352 32.4001 23.4284 32.3955 24.5996V25.4131C32.3955 26.5296 32.6507 27.4183 33.1611 28.0791C33.6715 28.7354 34.362 29.0635 35.2324 29.0635C35.7246 29.0635 36.1553 29.0088 36.5244 28.8994C36.8936 28.79 37.1989 28.6055 37.4404 28.3457V26.1104H35.1367V25.0439H38.7461V28.6943ZM40.4072 26.2334C40.4072 25.5088 40.5485 24.8571 40.8311 24.2783C41.1182 23.6995 41.5146 23.2529 42.0205 22.9385C42.5309 22.624 43.112 22.4668 43.7637 22.4668C44.7708 22.4668 45.5843 22.8154 46.2041 23.5127C46.8285 24.21 47.1406 25.1374 47.1406 26.2949V26.3838C47.1406 27.1038 47.0016 27.751 46.7236 28.3252C46.4502 28.8949 46.056 29.3392 45.541 29.6582C45.0306 29.9772 44.4427 30.1367 43.7773 30.1367C42.7747 30.1367 41.9613 29.7881 41.3369 29.0908C40.7171 28.3936 40.4072 27.4707 40.4072 26.3223V26.2334ZM41.6787 26.3838C41.6787 27.2041 41.8678 27.8626 42.2461 28.3594C42.6289 28.8561 43.1393 29.1045 43.7773 29.1045C44.4199 29.1045 44.9303 28.8538 45.3086 28.3525C45.6868 27.8467 45.876 27.1403 45.876 26.2334C45.876 25.4222 45.6823 24.766 45.2949 24.2646C44.9121 23.7588 44.4017 23.5059 43.7637 23.5059C43.1393 23.5059 42.6357 23.7542 42.2529 24.251C41.8701 24.7477 41.6787 25.4587 41.6787 26.3838ZM48.3916 26.2334C48.3916 25.5088 48.5329 24.8571 48.8154 24.2783C49.1025 23.6995 49.499 23.2529 50.0049 22.9385C50.5153 22.624 51.0964 22.4668 51.748 22.4668C52.7552 22.4668 53.5687 22.8154 54.1885 23.5127C54.8128 24.21 55.125 25.1374 55.125 26.2949V26.3838C55.125 27.1038 54.986 27.751 54.708 28.3252C54.4346 28.8949 54.0404 29.3392 53.5254 29.6582C53.015 29.9772 52.4271 30.1367 51.7617 30.1367C50.7591 30.1367 49.9456 29.7881 49.3213 29.0908C48.7015 28.3936 48.3916 27.4707 48.3916 26.3223V26.2334ZM49.6631 26.3838C49.6631 27.2041 49.8522 27.8626 50.2305 28.3594C50.6133 28.8561 51.1237 29.1045 51.7617 29.1045C52.4043 29.1045 52.9147 28.8538 53.293 28.3525C53.6712 27.8467 53.8604 27.1403 53.8604 26.2334C53.8604 25.4222 53.6667 24.766 53.2793 24.2646C52.8965 23.7588 52.3861 23.5059 51.748 23.5059C51.1237 23.5059 50.6201 23.7542 50.2373 24.251C49.8545 24.7477 49.6631 25.4587 49.6631 26.3838ZM56.4033 26.2402C56.4033 25.1055 56.6722 24.194 57.21 23.5059C57.7477 22.8132 58.4518 22.4668 59.3223 22.4668C60.1882 22.4668 60.874 22.763 61.3799 23.3555V19.5H62.6445V30H61.4824L61.4209 29.207C60.915 29.8268 60.2109 30.1367 59.3086 30.1367C58.4518 30.1367 57.7523 29.7858 57.21 29.084C56.6722 28.3822 56.4033 27.4661 56.4033 26.3359V26.2402ZM57.668 26.3838C57.668 27.2223 57.8411 27.8786 58.1875 28.3525C58.5339 28.8265 59.0124 29.0635 59.623 29.0635C60.4251 29.0635 61.0107 28.7035 61.3799 27.9834V24.5859C61.0016 23.8887 60.4206 23.54 59.6367 23.54C59.0169 23.54 58.5339 23.7793 58.1875 24.2578C57.8411 24.7363 57.668 25.445 57.668 26.3838ZM6.65137 45.4023H2.48145L1.54492 48H0.191406L3.99219 38.0469H5.14062L8.94824 48H7.60156L6.65137 45.4023ZM2.87793 44.3223H6.26172L4.56641 39.667L2.87793 44.3223ZM9.78906 44.2402C9.78906 43.0872 10.0557 42.1712 10.5889 41.4922C11.1221 40.8086 11.8285 40.4668 12.708 40.4668C13.6104 40.4668 14.3145 40.7858 14.8203 41.4238L14.8818 40.6035H16.0371V47.8223C16.0371 48.7793 15.7523 49.5335 15.1826 50.085C14.6175 50.6364 13.8564 50.9121 12.8994 50.9121C12.3662 50.9121 11.8444 50.7982 11.334 50.5703C10.8236 50.3424 10.4339 50.0303 10.165 49.6338L10.8213 48.875C11.3636 49.5449 12.0267 49.8799 12.8105 49.8799C13.4258 49.8799 13.9043 49.7067 14.2461 49.3604C14.5924 49.014 14.7656 48.5264 14.7656 47.8975V47.2617C14.2598 47.8451 13.5693 48.1367 12.6943 48.1367C11.8285 48.1367 11.1266 47.7881 10.5889 47.0908C10.0557 46.3936 9.78906 45.4434 9.78906 44.2402ZM11.0605 44.3838C11.0605 45.2178 11.2314 45.874 11.5732 46.3525C11.915 46.8265 12.3936 47.0635 13.0088 47.0635C13.8063 47.0635 14.3919 46.7012 14.7656 45.9766V42.5996C14.3783 41.8932 13.7972 41.54 13.0225 41.54C12.4072 41.54 11.9264 41.7793 11.5801 42.2578C11.2337 42.7363 11.0605 43.445 11.0605 44.3838ZM21.0205 48.1367C20.0179 48.1367 19.2021 47.8086 18.5732 47.1523C17.9443 46.4915 17.6299 45.6097 17.6299 44.5068V44.2744C17.6299 43.5407 17.7689 42.8867 18.0469 42.3125C18.3294 41.7337 18.7214 41.2826 19.2227 40.959C19.7285 40.6309 20.2754 40.4668 20.8633 40.4668C21.8249 40.4668 22.5723 40.7835 23.1055 41.417C23.6387 42.0505 23.9053 42.9574 23.9053 44.1377V44.6641H18.8945C18.9128 45.3932 19.1247 45.9834 19.5303 46.4346C19.9404 46.8812 20.46 47.1045 21.0889 47.1045C21.5355 47.1045 21.9137 47.0133 22.2236 46.8311C22.5335 46.6488 22.8047 46.4072 23.0371 46.1064L23.8096 46.708C23.1898 47.6605 22.2601 48.1367 21.0205 48.1367ZM20.8633 41.5059C20.3529 41.5059 19.9245 41.6927 19.5781 42.0664C19.2318 42.4355 19.0176 42.9551 18.9355 43.625H22.6406V43.5293C22.6042 42.8867 22.431 42.39 22.1211 42.0391C21.8112 41.6836 21.3919 41.5059 20.8633 41.5059ZM26.5713 40.6035L26.6123 41.5332C27.1774 40.8223 27.9157 40.4668 28.8271 40.4668C30.3903 40.4668 31.1787 41.3486 31.1924 43.1123V48H29.9277V43.1055C29.9232 42.5723 29.8001 42.1781 29.5586 41.9229C29.3216 41.6676 28.9502 41.54 28.4443 41.54C28.0342 41.54 27.6742 41.6494 27.3643 41.8682C27.0544 42.0869 26.8128 42.374 26.6396 42.7295V48H25.375V40.6035H26.5713ZM36.0664 47.1045C36.5176 47.1045 36.9118 46.9678 37.249 46.6943C37.5863 46.4209 37.7731 46.0791 37.8096 45.6689H39.0059C38.9831 46.0928 38.8372 46.4961 38.5684 46.8789C38.2995 47.2617 37.9395 47.5671 37.4883 47.7949C37.0417 48.0228 36.5677 48.1367 36.0664 48.1367C35.0592 48.1367 34.2572 47.8018 33.6602 47.1318C33.0677 46.4574 32.7715 45.5368 32.7715 44.3701V44.1582C32.7715 43.4382 32.9036 42.7979 33.168 42.2373C33.4323 41.6768 33.8105 41.2415 34.3027 40.9316C34.7995 40.6217 35.3851 40.4668 36.0596 40.4668C36.889 40.4668 37.5771 40.7152 38.124 41.2119C38.6755 41.7087 38.9694 42.3535 39.0059 43.1465H37.8096C37.7731 42.668 37.5908 42.276 37.2627 41.9707C36.9391 41.6608 36.5381 41.5059 36.0596 41.5059C35.417 41.5059 34.918 41.7383 34.5625 42.2031C34.2116 42.6634 34.0361 43.3311 34.0361 44.2061V44.4453C34.0361 45.2975 34.2116 45.9538 34.5625 46.4141C34.9134 46.8743 35.4147 47.1045 36.0664 47.1045ZM41.8018 48H40.5371V40.6035H41.8018V48ZM40.4346 38.6416C40.4346 38.4365 40.4961 38.2633 40.6191 38.1221C40.7467 37.9808 40.9336 37.9102 41.1797 37.9102C41.4258 37.9102 41.6126 37.9808 41.7402 38.1221C41.8678 38.2633 41.9316 38.4365 41.9316 38.6416C41.9316 38.8467 41.8678 39.0176 41.7402 39.1543C41.6126 39.291 41.4258 39.3594 41.1797 39.3594C40.9336 39.3594 40.7467 39.291 40.6191 39.1543C40.4961 39.0176 40.4346 38.8467 40.4346 38.6416ZM46.9014 48.1367C45.8988 48.1367 45.083 47.8086 44.4541 47.1523C43.8252 46.4915 43.5107 45.6097 43.5107 44.5068V44.2744C43.5107 43.5407 43.6497 42.8867 43.9277 42.3125C44.2103 41.7337 44.6022 41.2826 45.1035 40.959C45.6094 40.6309 46.1562 40.4668 46.7441 40.4668C47.7057 40.4668 48.4531 40.7835 48.9863 41.417C49.5195 42.0505 49.7861 42.9574 49.7861 44.1377V44.6641H44.7754C44.7936 45.3932 45.0055 45.9834 45.4111 46.4346C45.8213 46.8812 46.3408 47.1045 46.9697 47.1045C47.4163 47.1045 47.7946 47.0133 48.1045 46.8311C48.4144 46.6488 48.6855 46.4072 48.918 46.1064L49.6904 46.708C49.0706 47.6605 48.141 48.1367 46.9014 48.1367ZM46.7441 41.5059C46.2337 41.5059 45.8053 41.6927 45.459 42.0664C45.1126 42.4355 44.8984 42.9551 44.8164 43.625H48.5215V43.5293C48.485 42.8867 48.3118 42.39 48.002 42.0391C47.6921 41.6836 47.2728 41.5059 46.7441 41.5059ZM55.5625 46.0381C55.5625 45.6963 55.4326 45.432 55.1729 45.2451C54.9176 45.0537 54.4688 44.8896 53.8262 44.7529C53.1882 44.6162 52.68 44.4521 52.3018 44.2607C51.9281 44.0693 51.6501 43.8415 51.4678 43.5771C51.29 43.3128 51.2012 42.9984 51.2012 42.6338C51.2012 42.0277 51.4564 41.515 51.9668 41.0957C52.4818 40.6764 53.138 40.4668 53.9355 40.4668C54.7741 40.4668 55.4531 40.6833 55.9727 41.1162C56.4967 41.5492 56.7588 42.1029 56.7588 42.7773H55.4873C55.4873 42.431 55.3392 42.1325 55.043 41.8818C54.7513 41.6312 54.3822 41.5059 53.9355 41.5059C53.4753 41.5059 53.1152 41.6061 52.8555 41.8066C52.5957 42.0072 52.4658 42.2692 52.4658 42.5928C52.4658 42.8981 52.5866 43.1283 52.8281 43.2832C53.0697 43.4382 53.5049 43.5863 54.1338 43.7275C54.7673 43.8688 55.2799 44.0374 55.6719 44.2334C56.0638 44.4294 56.3532 44.6663 56.54 44.9443C56.7314 45.2178 56.8271 45.5527 56.8271 45.9492C56.8271 46.61 56.5628 47.141 56.0342 47.542C55.5055 47.9385 54.8197 48.1367 53.9766 48.1367C53.3841 48.1367 52.86 48.0319 52.4043 47.8223C51.9486 47.6126 51.5908 47.321 51.3311 46.9473C51.0758 46.569 50.9482 46.1611 50.9482 45.7236H52.2129C52.2357 46.1475 52.4043 46.4847 52.7188 46.7354C53.0378 46.9814 53.457 47.1045 53.9766 47.1045C54.4551 47.1045 54.8379 47.0088 55.125 46.8174C55.4167 46.6214 55.5625 46.3617 55.5625 46.0381ZM69.8018 43.3447C69.8018 44.32 69.6377 45.1722 69.3096 45.9014C68.9814 46.626 68.5166 47.1797 67.915 47.5625C67.3135 47.9453 66.6117 48.1367 65.8096 48.1367C65.0257 48.1367 64.3307 47.9453 63.7246 47.5625C63.1185 47.1751 62.6468 46.626 62.3096 45.915C61.9769 45.1995 61.806 44.3724 61.7969 43.4336V42.7158C61.7969 41.7588 61.9632 40.9134 62.2959 40.1797C62.6286 39.446 63.098 38.8854 63.7041 38.498C64.3148 38.1061 65.012 37.9102 65.7959 37.9102C66.5934 37.9102 67.2952 38.1038 67.9014 38.4912C68.512 38.874 68.9814 39.4323 69.3096 40.166C69.6377 40.8952 69.8018 41.7451 69.8018 42.7158V43.3447ZM68.4961 42.7021C68.4961 41.5218 68.2591 40.6172 67.7852 39.9883C67.3112 39.3548 66.6481 39.0381 65.7959 39.0381C64.9665 39.0381 64.3125 39.3548 63.834 39.9883C63.36 40.6172 63.1162 41.4922 63.1025 42.6133V43.3447C63.1025 44.4886 63.3418 45.3887 63.8203 46.0449C64.3034 46.6966 64.9665 47.0225 65.8096 47.0225C66.6572 47.0225 67.3135 46.7148 67.7783 46.0996C68.2432 45.4798 68.4824 44.5934 68.4961 43.4404V42.7021ZM72.7686 40.6035L72.8096 41.5332C73.3747 40.8223 74.113 40.4668 75.0244 40.4668C76.5876 40.4668 77.376 41.3486 77.3896 43.1123V48H76.125V43.1055C76.1204 42.5723 75.9974 42.1781 75.7559 41.9229C75.5189 41.6676 75.1475 41.54 74.6416 41.54C74.2314 41.54 73.8714 41.6494 73.5615 41.8682C73.2516 42.0869 73.0101 42.374 72.8369 42.7295V48H71.5723V40.6035H72.7686ZM1.15527 66V56.0469H4.40918C5.48926 56.0469 6.30046 56.2702 6.84277 56.7168C7.38965 57.1634 7.66309 57.8242 7.66309 58.6992C7.66309 59.1641 7.53092 59.5765 7.2666 59.9365C7.00228 60.292 6.64225 60.5677 6.18652 60.7637C6.72428 60.9141 7.14811 61.2012 7.45801 61.625C7.77246 62.0443 7.92969 62.5456 7.92969 63.1289C7.92969 64.0221 7.6403 64.724 7.06152 65.2344C6.48275 65.7448 5.66471 66 4.60742 66H1.15527ZM2.46777 61.3447V64.9268H4.63477C5.24544 64.9268 5.72624 64.7695 6.07715 64.4551C6.43262 64.1361 6.61035 63.6986 6.61035 63.1426C6.61035 61.944 5.95866 61.3447 4.65527 61.3447H2.46777ZM2.46777 60.292H4.4502C5.02441 60.292 5.48242 60.1484 5.82422 59.8613C6.17057 59.5742 6.34375 59.1846 6.34375 58.6924C6.34375 58.1455 6.18424 57.749 5.86523 57.5029C5.54622 57.2523 5.06087 57.127 4.40918 57.127H2.46777V60.292ZM13.2549 59.7383C13.0635 59.7064 12.8561 59.6904 12.6328 59.6904C11.8034 59.6904 11.2406 60.0436 10.9443 60.75V66H9.67969V58.6035H10.9102L10.9307 59.458C11.3454 58.7972 11.9333 58.4668 12.6943 58.4668C12.9404 58.4668 13.1273 58.4987 13.2549 58.5625V59.7383ZM17.3564 66.1367C16.3538 66.1367 15.5381 65.8086 14.9092 65.1523C14.2803 64.4915 13.9658 63.6097 13.9658 62.5068V62.2744C13.9658 61.5407 14.1048 60.8867 14.3828 60.3125C14.6654 59.7337 15.0573 59.2826 15.5586 58.959C16.0645 58.6309 16.6113 58.4668 17.1992 58.4668C18.1608 58.4668 18.9082 58.7835 19.4414 59.417C19.9746 60.0505 20.2412 60.9574 20.2412 62.1377V62.6641H15.2305C15.2487 63.3932 15.4606 63.9834 15.8662 64.4346C16.2764 64.8812 16.7959 65.1045 17.4248 65.1045C17.8714 65.1045 18.2497 65.0133 18.5596 64.8311C18.8695 64.6488 19.1406 64.4072 19.373 64.1064L20.1455 64.708C19.5257 65.6605 18.596 66.1367 17.3564 66.1367ZM17.1992 59.5059C16.6888 59.5059 16.2604 59.6927 15.9141 60.0664C15.5677 60.4355 15.3535 60.9551 15.2715 61.625H18.9766V61.5293C18.9401 60.8867 18.7669 60.39 18.457 60.0391C18.1471 59.6836 17.7279 59.5059 17.1992 59.5059ZM24.7803 66.1367C23.7777 66.1367 22.9619 65.8086 22.333 65.1523C21.7041 64.4915 21.3896 63.6097 21.3896 62.5068V62.2744C21.3896 61.5407 21.5286 60.8867 21.8066 60.3125C22.0892 59.7337 22.4811 59.2826 22.9824 58.959C23.4883 58.6309 24.0352 58.4668 24.623 58.4668C25.5846 58.4668 26.332 58.7835 26.8652 59.417C27.3984 60.0505 27.665 60.9574 27.665 62.1377V62.6641H22.6543C22.6725 63.3932 22.8844 63.9834 23.29 64.4346C23.7002 64.8812 24.2197 65.1045 24.8486 65.1045C25.2952 65.1045 25.6735 65.0133 25.9834 64.8311C26.2933 64.6488 26.5645 64.4072 26.7969 64.1064L27.5693 64.708C26.9495 65.6605 26.0199 66.1367 24.7803 66.1367ZM24.623 59.5059C24.1126 59.5059 23.6842 59.6927 23.3379 60.0664C22.9915 60.4355 22.7773 60.9551 22.6953 61.625H26.4004V61.5293C26.3639 60.8867 26.1908 60.39 25.8809 60.0391C25.571 59.6836 25.1517 59.5059 24.623 59.5059ZM29.7568 66V59.5811H28.5879V58.6035H29.7568V57.8447C29.7568 57.0518 29.9688 56.4388 30.3926 56.0059C30.8164 55.5729 31.4157 55.3564 32.1904 55.3564C32.4821 55.3564 32.7715 55.3952 33.0586 55.4727L32.9902 56.498C32.776 56.457 32.5482 56.4365 32.3066 56.4365C31.8965 56.4365 31.5798 56.5573 31.3564 56.7988C31.1331 57.0358 31.0215 57.3776 31.0215 57.8242V58.6035H32.6006V59.5811H31.0215V66H29.7568ZM34.0293 65.3369C34.0293 65.1182 34.0931 64.9359 34.2207 64.79C34.3529 64.6442 34.5488 64.5713 34.8086 64.5713C35.0684 64.5713 35.2643 64.6442 35.3965 64.79C35.5332 64.9359 35.6016 65.1182 35.6016 65.3369C35.6016 65.5465 35.5332 65.722 35.3965 65.8633C35.2643 66.0046 35.0684 66.0752 34.8086 66.0752C34.5488 66.0752 34.3529 66.0046 34.2207 65.8633C34.0931 65.722 34.0293 65.5465 34.0293 65.3369Z" fill="black"/>
</svg>
