<svg width="48" height="36" viewBox="0 0 48 36" fill="none" xmlns="http://www.w3.org/2000/svg">
<g clip-path="url(#clip0_1_383)">
<path fill-rule="evenodd" clip-rule="evenodd" d="M34.4026 1H13.5974C6.65143 1 1 6.7157 1 13.7427C1 20.7714 6.65143 26.4888 13.5974 26.4888H32.3638L39.0272 34.5562C39.2638 34.8371 39.6055 35 39.9636 35C40.1016 35 40.2396 34.9734 40.3776 34.9252C40.8623 34.7524 41.1859 34.282 41.1859 33.7635L41.1958 24.4013C42.6497 22.8772 47 17.9526 47 13.7427C47 6.7157 41.3502 1 34.4026 1Z" stroke="#9B421C" stroke-width="2"/>
<path d="M14 15.7715C15.1046 15.7715 16 14.8761 16 13.7715C16 12.6669 15.1046 11.7715 14 11.7715C12.8954 11.7715 12 12.6669 12 13.7715C12 14.8761 12.8954 15.7715 14 15.7715Z" fill="#9B421C"/>
<path d="M24 15.7715C25.1046 15.7715 26 14.8761 26 13.7715C26 12.6669 25.1046 11.7715 24 11.7715C22.8954 11.7715 22 12.6669 22 13.7715C22 14.8761 22.8954 15.7715 24 15.7715Z" fill="#9B421C"/>
<path d="M34 15.7715C35.1046 15.7715 36 14.8761 36 13.7715C36 12.6669 35.1046 11.7715 34 11.7715C32.8954 11.7715 32 12.6669 32 13.7715C32 14.8761 32.8954 15.7715 34 15.7715Z" fill="#9B421C"/>
</g>
<defs>
<clipPath id="clip0_1_383">
<rect width="48" height="36" fill="white"/>
</clipPath>
</defs>
</svg>
