<svg width="22" height="22" viewBox="0 0 22 22" fill="none" xmlns="http://www.w3.org/2000/svg">
<path fill-rule="evenodd" clip-rule="evenodd" d="M15.558 5.82873C15.7442 6.01703 15.8365 6.24613 15.8365 6.51132C15.8365 6.77808 15.7442 7.00562 15.558 7.19392C15.3719 7.38379 15.1487 7.47794 14.8871 7.47794C14.6272 7.47794 14.404 7.38379 14.2179 7.19392C14.0332 7.00562 13.9408 6.77808 13.9408 6.51132C13.9408 6.24613 14.0332 6.01703 14.2179 5.82873C14.404 5.63886 14.6272 5.54471 14.8871 5.54471C15.1487 5.54471 15.3719 5.63886 15.558 5.82873ZM12.5284 12.7221C13.0438 12.1964 13.3007 11.5625 13.3007 10.8202C13.3007 10.0781 13.0438 9.44258 12.5284 8.91844C12.0129 8.39276 11.3912 8.12915 10.6635 8.12915C9.93566 8.12915 9.31407 8.39276 8.79858 8.91844C8.28312 9.44258 8.02616 10.0781 8.02616 10.8202C8.02616 11.5625 8.28312 12.1964 8.79858 12.7221C9.31407 13.2478 9.93566 13.5098 10.6635 13.5098C11.3912 13.5098 12.0129 13.2478 12.5284 12.7221ZM13.5393 7.88749C14.3286 8.69405 14.724 9.67166 14.724 10.8202C14.724 11.9689 14.3286 12.9465 13.5393 13.7515C12.7484 14.5565 11.7898 14.9598 10.6635 14.9598C9.53718 14.9598 8.57855 14.5565 7.7892 13.7515C6.99986 12.9465 6.60441 11.9689 6.60441 10.8202C6.60441 9.67166 6.99986 8.69405 7.7892 7.88749C8.57855 7.08251 9.53718 6.67923 10.6635 6.67923C11.7898 6.67923 12.7484 7.08251 13.5393 7.88749ZM11.4528 4.19364C10.9742 4.19835 10.7112 4.19992 10.6635 4.19992C10.6157 4.19992 10.3526 4.19835 9.87562 4.19364C9.39867 4.19207 9.03554 4.19207 8.78935 4.19364C8.54008 4.19835 8.20926 4.20777 7.79382 4.22659C7.37837 4.24385 7.02447 4.27838 6.73366 4.33016C6.44132 4.38352 6.19512 4.44942 5.99663 4.52474C5.6535 4.66597 5.35038 4.86839 5.0888 5.13515C4.82877 5.40191 4.62874 5.70947 4.49179 6.0594C4.4164 6.26339 4.35331 6.51289 4.301 6.81104C4.24869 7.10918 4.21483 7.46852 4.1979 7.8922C4.18098 8.31745 4.17021 8.65482 4.16713 8.90746C4.16405 9.16009 4.16405 9.52884 4.16713 10.0153C4.17021 10.5033 4.17329 10.7701 4.17329 10.8202C4.17329 10.8689 4.17021 11.1372 4.16713 11.6237C4.16405 12.1102 4.16405 12.4805 4.16713 12.7316C4.17021 12.9842 4.18098 13.3215 4.1979 13.7452C4.21483 14.1705 4.24869 14.5298 4.301 14.828C4.35331 15.1261 4.4164 15.3756 4.49179 15.5796C4.62874 15.9296 4.82877 16.2387 5.0888 16.5038C5.35038 16.7706 5.6535 16.9746 5.99663 17.1143C6.19512 17.1912 6.44132 17.2555 6.73366 17.3073C7.02447 17.3607 7.37837 17.3967 7.79382 17.414C8.20926 17.4312 8.54008 17.4407 8.78935 17.4454C9.03554 17.4485 9.39867 17.4485 9.87562 17.4454C10.3526 17.4407 10.6157 17.4391 10.6635 17.4391C10.7112 17.4391 10.9742 17.4407 11.4528 17.4454C11.9298 17.4485 12.2914 17.4485 12.5392 17.4454C12.7869 17.4407 13.1177 17.4312 13.5331 17.414C13.9485 17.3967 14.3025 17.3607 14.5948 17.3073C14.8857 17.2555 15.1318 17.1912 15.3319 17.1143C15.675 16.9746 15.9766 16.7706 16.2381 16.5038C16.4982 16.2387 16.6982 15.9296 16.8351 15.5796C16.9106 15.3756 16.9752 15.1261 17.026 14.828C17.0782 14.5298 17.1121 14.1705 17.129 13.7452C17.146 13.3215 17.1567 12.9842 17.1598 12.7316C17.1628 12.4805 17.1628 12.1102 17.1598 11.6237C17.1567 11.1372 17.1552 10.8689 17.1552 10.8202C17.1552 10.7701 17.1567 10.5033 17.1598 10.0153C17.1628 9.52884 17.1628 9.16009 17.1598 8.90746C17.1567 8.65482 17.146 8.31745 17.129 7.8922C17.1121 7.46852 17.0782 7.10918 17.026 6.81104C16.9752 6.51289 16.9106 6.26339 16.8351 6.0594C16.6982 5.70947 16.4982 5.40191 16.2381 5.13515C15.9766 4.86839 15.675 4.66597 15.3319 4.52474C15.1318 4.44942 14.8857 4.38352 14.5948 4.33016C14.3025 4.27838 13.9485 4.24385 13.5331 4.22659C13.1177 4.20777 12.7869 4.19835 12.5392 4.19364C12.2914 4.19207 11.9298 4.19207 11.4528 4.19364ZM18.577 10.8202C18.577 12.4239 18.56 13.5349 18.5262 14.1501C18.4569 15.6078 18.0307 16.7361 17.2475 17.5333C16.4643 18.3335 15.3596 18.7666 13.9301 18.8372C13.3254 18.8718 12.236 18.889 10.6635 18.889C9.09093 18.889 8.00154 18.8718 7.39684 18.8372C5.96893 18.7666 4.86261 18.3335 4.07942 17.5333C3.29623 16.7361 2.87002 15.6078 2.80231 14.1501C2.76692 13.5349 2.75 12.4239 2.75 10.8202C2.75 9.21497 2.76692 8.10561 2.80231 7.48892C2.87002 6.03115 3.29623 4.90448 4.07942 4.1042C4.86261 3.30706 5.96893 2.87239 7.39684 2.80178C8.00154 2.76726 9.09093 2.75 10.6635 2.75C12.236 2.75 13.3254 2.76726 13.9301 2.80178C15.3596 2.87239 16.4643 3.30706 17.2475 4.1042C18.0307 4.90448 18.4569 6.03115 18.5262 7.48892C18.56 8.10561 18.577 9.21497 18.577 10.8202Z" fill="#9F4A19"/>
</svg>
