<svg width="24" height="24" viewBox="0 0 24 24" fill="none" xmlns="http://www.w3.org/2000/svg">
<path fill-rule="evenodd" clip-rule="evenodd" d="M20.3102 6.77395C19.8198 7.53545 19.226 8.18718 18.5306 8.72389C18.5372 8.83193 18.5421 8.99573 18.5421 9.21356C18.5421 10.2243 18.4027 11.2349 18.1238 12.2404C17.8467 13.2494 17.4235 14.2165 16.856 15.1401C16.2885 16.0671 15.6128 16.8861 14.8304 17.5971C14.0464 18.3098 13.1017 18.8762 11.9962 19.3013C10.8908 19.7248 9.70823 19.9374 8.44859 19.9374C6.46401 19.9374 4.64835 19.3728 3 18.2453C3.2575 18.2767 3.54289 18.2906 3.8578 18.2906C5.50452 18.2906 6.97245 17.7539 8.26161 16.6822C7.49402 16.6666 6.80516 16.4156 6.19666 15.9277C5.58817 15.4433 5.17157 14.8229 4.94523 14.0684C5.18633 14.1067 5.40939 14.1259 5.61441 14.1259C5.92932 14.1259 6.24095 14.0823 6.54766 13.9969C5.72758 13.8174 5.04855 13.3835 4.51058 12.6952C3.97261 12.0069 3.70363 11.2088 3.70363 10.2974V10.2521C4.20223 10.5484 4.73529 10.7069 5.3077 10.7296C4.82385 10.3881 4.44006 9.94021 4.15303 9.38781C3.86929 8.83542 3.72659 8.23597 3.72659 7.59121C3.72659 6.90638 3.88733 6.27208 4.2088 5.68832C5.09448 6.84713 6.17206 7.77593 7.44318 8.47296C8.7143 9.16825 10.074 9.5551 11.5239 9.63352C11.4648 9.33728 11.4353 9.04975 11.4353 8.7692C11.4353 7.72714 11.7814 6.83842 12.4735 6.10305C13.1657 5.36768 14.0021 5 14.983 5C16.0081 5 16.8724 5.39731 17.576 6.19192C18.3731 6.02812 19.1243 5.72317 19.828 5.28056C19.5557 6.1745 19.0358 6.86804 18.2665 7.35771C18.9488 7.28104 19.6295 7.08587 20.3102 6.77395Z" fill="#9F4A19"/>
</svg>
